# xmcd CD database file
#
# Track frame offsets:
#	150
#	25303
#	42618
#	62108
#	81168
#	111118
#	130743
#	156888
#	169143
#	195273
#	217448
#	234453
#	260370
#	280237
#
# Disc length: 3993 seconds
#
# Revision: 0
# Processed by: cddbd v1.5.2PL0 Copyright (c) Steve Scherf et al.
# Submitted via: CDex 1.51
#
DISCID=cb0f970e
DTITLE=Climax Jazz Band - Konnichiwa! II Japan
DYEAR=1996
DGENRE=Jazz
TTITLE0=Weary Blues
TTITLE1=Baby Won't You Please Come Home
TTITLE2=Basin Street Blues
TTITLE3=Panama
TTITLE4=Blue Autumn
TTITLE5=Down By The Riverside
TTITLE6=Just A Closer Walk
TTITLE7=Maple Leaf Rag
TTITLE8=Yes SIr! That's My Baby
TTITLE9=Chimes Blues
TTITLE10=Some Of These Days
TTITLE11=Precious Lord
TTITLE12=After You've Gone
TTITLE13=When The Saints
EXTD=YEAR: 1996
EXTT0=
EXTT1=
EXTT2=
EXTT3=
EXTT4=
EXTT5=
EXTT6=
EXTT7=
EXTT8=
EXTT9=
EXTT10=
EXTT11=
EXTT12=
EXTT13=
PLAYORDER=
